<svg xmlns="http://www.w3.org/2000/svg" viewBox="0 0 179.5 297.5"><defs><style>.cls-1{isolation:isolate;font-size:140.26px;font-family:DancingScript-Regular, Dancing Script;}.cls-1,.cls-2{fill:#81d4fa;}</style></defs><title>logo</title><g id="Layer_2" data-name="Layer 2"><g id="Layer_1-2" data-name="Layer 1"><g id="Layer_1-3" data-name="Layer 1"><text class="cls-1" transform="translate(12.69 120.62) scale(1.41 1)">ns</text><g id="Layer_2-2" data-name="Layer 2"><g id="Layer_1-2-2" data-name="Layer 1-2"><path class="cls-2" d="M123.4,282.9H55.9a18.78,18.78,0,0,1-18.8-18.8v-6.3a4.23,4.23,0,0,1,4.2-4.2h96.6a4.23,4.23,0,0,1,4.2,4.2v6.3A18.69,18.69,0,0,1,123.4,282.9ZM45.6,262v2.1a10.29,10.29,0,0,0,10.3,10.3h67.5a10.29,10.29,0,0,0,10.3-10.3V262Z"/><path class="cls-2" d="M89.7,2A88.37,88.37,0,0,0,56,8.6h67.4A90.31,90.31,0,0,0,89.7,2Z"/><path class="cls-2" d="M56,8.6A89.88,89.88,0,0,0,0,91.8C0,116,12.9,138.3,24.3,158l4.5,7.8c5,8.8,9,34.7,10.1,44a4.29,4.29,0,0,0,4.2,3.7h93.3a4.22,4.22,0,0,0,4.2-3.7c1.1-9.2,5.1-35.2,10.1-44,1.4-2.5,2.9-5.1,4.4-7.8,11.4-19.7,24.4-42,24.4-66.2a90,90,0,0,0-56-83.2m24.3,145.1c-1.5,2.6-3.1,5.3-4.5,7.8-5.6,9.9-9.3,34.1-10.6,43.4H46.8c-1.3-9.4-5-33.6-10.6-43.4-1.4-2.6-3-5.2-4.5-7.8-10.9-18.8-23.2-40-23.2-62a81.3,81.3,0,0,1,162.6,0h0c-.1,22-12.4,43.3-23.3,62Z"/><path class="cls-2" d="M138.1,229.5H41.3a4.23,4.23,0,0,1-4.2-4.2h0V209a4.23,4.23,0,0,1,4.2-4.2h96.8a4.23,4.23,0,0,1,4.2,4.2h0v16.2A4.13,4.13,0,0,1,138.1,229.5ZM45.6,221h88.3v-7.8H45.6Z"/><path class="cls-2" d="M138.1,245.8H41.3a4.23,4.23,0,0,1-4.2-4.2h0V225.4a4.23,4.23,0,0,1,4.2-4.2h96.8a4.23,4.23,0,0,1,4.2,4.2h0v16.2A4.1,4.1,0,0,1,138.1,245.8Zm-92.5-8.5h88.3v-7.8H45.6Z"/><path class="cls-2" d="M138.1,262H41.3a4.23,4.23,0,0,1-4.2-4.2V241.5a4.23,4.23,0,0,1,4.2-4.2h96.8a4.23,4.23,0,0,1,4.2,4.2h0v16.2a4.13,4.13,0,0,1-4.2,4.3Zm-92.5-8.4h88.3v-7.8H45.6Z"/><path class="cls-2" d="M89.7,297.5h0a18.78,18.78,0,0,1-18.8-18.8,4.23,4.23,0,0,1,4.2-4.2h29.2a4.23,4.23,0,0,1,4.2,4.2A18.78,18.78,0,0,1,89.7,297.5Zm-9.4-14.6A10.38,10.38,0,0,0,94,288.1a10.15,10.15,0,0,0,5.2-5.2Z"/></g></g></g></g></g></svg>