<?xml version="1.0" standalone="no"?>
<!DOCTYPE svg PUBLIC "-//W3C//DTD SVG 20010904//EN"
 "http://www.w3.org/TR/2001/REC-SVG-20010904/DTD/svg10.dtd">
<svg version="1.0" xmlns="http://www.w3.org/2000/svg"
 width="2094.000000pt" height="2094.000000pt" viewBox="0 0 2094.000000 2094.000000"
 preserveAspectRatio="xMidYMid meet">
<metadata>
Created by potrace 1.11, written by Peter Selinger 2001-2013
</metadata>
<g transform="translate(0.000000,2094.000000) scale(0.100000,-0.100000)"
fill="#000000" stroke="none">
<path d="M10110 20724 c-766 -54 -1415 -207 -2080 -489 -168 -72 -544 -261
-705 -355 -1444 -846 -2498 -2254 -2899 -3870 -82 -330 -127 -595 -163 -950
-25 -252 -25 -840 0 -1069 89 -804 338 -1585 813 -2546 210 -426 380 -736 851
-1553 172 -299 331 -578 352 -620 132 -263 294 -839 430 -1533 52 -264 146
-819 176 -1040 l18 -126 -30 -44 c-63 -93 -58 73 -58 -2129 0 -2227 -4 -2064
62 -2274 131 -417 483 -750 909 -861 153 -40 252 -45 844 -45 440 0 561 -3
564 -13 86 -281 165 -423 332 -596 187 -195 410 -320 674 -377 118 -26 410
-27 526 -2 121 27 197 54 320 113 330 160 577 457 679 817 l16 57 617 4 c591
3 621 4 714 25 511 115 889 489 1005 995 12 51 19 155 26 362 10 337 21 3715
12 3792 -4 32 -19 72 -41 108 -19 32 -34 67 -34 78 0 39 91 609 141 887 153
842 328 1499 481 1805 42 83 276 498 533 945 985 1714 1364 2686 1487 3820 17
156 17 783 0 965 -103 1097 -436 2050 -1029 2949 -380 575 -916 1138 -1483
1558 -921 682 -1996 1087 -3180 1198 -114 11 -775 21 -880 14z m870 -599 c712
-68 1347 -246 1975 -555 586 -288 1042 -616 1510 -1084 460 -461 791 -922
1075 -1501 290 -591 466 -1190 540 -1834 64 -565 46 -1044 -61 -1559 l-22
-103 -81 -63 c-293 -229 -633 -379 -1005 -446 -63 -11 -116 -19 -117 -17 -2 2
5 31 16 65 43 138 54 229 54 432 -1 152 -6 221 -22 310 -43 237 -142 522 -319
915 -318 706 -364 846 -364 1100 0 121 5 149 66 365 35 123 -16 179 -174 188
-164 9 -281 -36 -396 -152 -119 -120 -162 -243 -172 -486 l-6 -145 -85 -120
c-282 -397 -652 -781 -1132 -1174 -147 -120 -164 -130 -323 -182 -114 -37
-122 -38 -140 -22 -11 11 -21 13 -25 7 -28 -41 -43 -54 -92 -79 -82 -41 -212
-129 -263 -179 -83 -81 -135 -187 -157 -326 l-11 -75 -202 -200 c-269 -267
-459 -415 -656 -514 -214 -108 -458 -159 -631 -132 -234 37 -332 176 -309 438
13 137 82 300 263 618 235 411 289 571 289 840 0 174 -17 257 -82 390 -83 174
-206 298 -376 380 -179 87 -389 124 -635 111 -332 -17 -616 -92 -940 -247
-179 -87 -268 -137 -440 -252 -400 -267 -765 -571 -1153 -960 -226 -227 -227
-228 -201 -170 240 532 394 997 394 1191 0 99 -13 135 -67 183 -67 61 -123 74
-308 74 -135 0 -173 -4 -245 -23 -111 -31 -251 -89 -322 -135 -56 -35 -58 -38
-58 -79 0 -188 -102 -565 -238 -883 -121 -283 -335 -724 -345 -709 -10 17 -76
326 -97 454 -38 237 -51 386 -57 630 -34 1453 528 2904 1533 3960 671 705
1430 1190 2333 1490 494 164 946 248 1536 284 125 8 587 -4 745 -19z m2580
-4970 c0 -20 134 -457 175 -570 44 -120 124 -384 160 -524 63 -251 93 -548 75
-754 -9 -111 -33 -277 -46 -319 -6 -19 3 -20 -189 18 -607 119 -1169 446
-1469 853 -25 35 -45 65 -44 66 2 2 48 36 103 77 320 238 734 629 1084 1025
125 141 151 163 151 128z m-4875 -435 c90 -29 144 -60 193 -114 170 -184 147
-493 -73 -1004 -80 -187 -161 -402 -187 -500 -29 -110 -29 -264 1 -351 49
-141 159 -258 314 -335 179 -89 390 -123 701 -113 333 11 578 71 871 211 234
112 463 271 653 451 101 96 101 96 107 68 75 -351 327 -672 656 -838 254 -128
523 -183 945 -192 355 -8 574 14 845 82 445 113 804 356 973 658 l35 63 108
12 c343 41 740 167 1012 321 40 22 74 41 76 41 13 0 -139 -450 -229 -678 -248
-629 -524 -1166 -1182 -2297 -375 -646 -429 -753 -533 -1065 -171 -510 -360
-1395 -489 -2290 l-28 -195 -2984 0 -2983 0 -29 195 c-147 1012 -347 1920
-531 2415 -97 258 -119 301 -464 893 -238 408 -492 857 -615 1087 -166 308
-402 795 -502 1033 l-26 62 263 308 c645 751 943 1064 1287 1350 468 388 850
614 1190 703 149 38 236 48 400 45 127 -3 168 -7 225 -26z m3507 -1131 c70
-96 357 -308 571 -423 302 -162 647 -280 979 -333 59 -10 108 -21 108 -24 0
-14 -100 -158 -144 -206 -58 -64 -187 -151 -277 -187 -158 -62 -288 -81 -503
-73 -371 14 -643 137 -852 386 -118 140 -182 284 -205 459 -20 151 13 294 84
360 33 31 134 71 179 72 30 0 42 -6 60 -31z m1346 -7806 l-3 -258 -3065 0
-3065 0 -3 258 -2 257 3070 0 3070 0 -2 -257z m2 -1123 l0 -270 -3070 0 -3070
0 0 270 0 270 3070 0 3070 0 0 -270z m-2 -1132 l2 -268 -3070 0 -3070 0 0 263
c0 145 3 267 7 270 3 4 1384 6 3067 5 l3061 -3 3 -267z m-18 -971 c0 -138 -22
-236 -80 -353 -70 -144 -215 -277 -368 -339 -143 -58 -19 -56 -2652 -53
l-2415 3 -73 23 c-208 64 -364 195 -452 377 -50 105 -69 185 -77 333 l-6 122
3061 0 3062 0 0 -113z m-2400 -1343 c0 -27 -78 -134 -149 -204 -95 -94 -174
-142 -301 -182 -63 -19 -95 -23 -205 -22 -111 0 -141 4 -207 26 -162 54 -299
158 -390 297 -26 40 -48 77 -48 82 0 5 287 9 650 9 358 0 650 -3 650 -6z"/>
</g>
</svg>
